<svg xmlns="http://www.w3.org/2000/svg" viewBox="0 0 85.1521 31.9537"><title>Artboard 1</title><path d="M13.0942,22.2759c9.1936.61,14.6781-5.5933,13.0388-14.471C24.94,1.3181,19.4448-1.4595,13.5136,1.4217c-.7952.3867-1.5849.7842-2.8757,1.4214C11.2805.7191,10.5562-.2068,8.77.2288,6.0574.8934,3.3832,1.7213.6818,2.4565-.2223,2.7015.05,3.41.0065,3.9924c-.0763.964.6263,1.0293,1.2581.9149,2.0315-.3485,2.13.8061,2.1132,2.3638q-.0817,9.7872,0,19.58c.0109,1.3725-.0327,2.5053-1.7755,2.647A1.2752,1.2752,0,0,0,.2679,31.1047c.1471,1.1982,1.0675.7515,1.6775.757q5.302.0654,10.6042,0c.5937-.0109,1.5086.4848,1.6993-.7188.2015-1.2473-.55-1.6123-1.53-1.683-1.6067-.1144-2.1622-.9206-1.9389-2.4782a9.4246,9.4246,0,0,0,0-2.4454C10.5617,22.7226,10.9919,22.14,13.0942,22.2759ZM10.7958,12.0368a34.1142,34.1142,0,0,0-.0381-4.6024c-.3-2.1893.7679-2.6305,2.598-2.5107A4.9135,4.9135,0,0,1,18.17,8.551c1.8409,5.5445-.7843,10.6041-5.648,10.9855-1.3234.1034-1.8027-.1907-1.7428-1.5414C10.8557,16.0125,10.7958,14.0247,10.7958,12.0368Z" style="fill:#fff"/><path d="M38.5,13.3926Q41.8562,7.829,45.2153,2.2672C46.0981.8112,49.4577-.119,50.9024.6465c.87.4609.5473,1.2625.5517,1.9269.0289,4.4413.015,8.8829.015,13.5635A13.18,13.18,0,0,0,56.78,3.2944c-.2745-2.289,1.1638-3.4085,3.4673-3.23a3.8,3.8,0,0,1,3.2859,5.3411A13.7989,13.7989,0,0,1,61.4834,8.9c-3.0775,4.0381-6.2345,8.0155-9.3508,12.0241a3.0137,3.0137,0,0,1-2.396,1.4737c-4.816.255-4.8129.3133-4.8129-4.609V10.2207l-.5287-.2137q-3.131,5.0987-6.2624,10.1969A5.7281,5.7281,0,0,1,31.8578,22.32c-1.0244-.3691-.7086-1.1457-.7128-1.7945-.0276-4.3563-.1378-8.7178.04-13.067.0831-2.0318-.5669-2.7809-2.5243-2.7525-.68.01-1.7071.2851-1.7331-1.0935-.0219-1.16.7329-1.3372,1.5285-1.52,2.294-.526,4.5869-1.0642,6.8975-1.5078,1.7078-.3279,2.66.1042,2.549,2.2223-.1827,3.4869-.05,6.99-.05,10.4868Z" style="fill:#fff"/><path d="M77.3345,2.74c-4.7534.43-6.3337,6.5434-4.8978,11.1186,1.4867,4.7369,4.3722,5.3671,12.3709,2.6931.9184,2.7541.0136,4.3206-2.8737,5.0643a25.6543,25.6543,0,0,1-6.9286,1.0991C68.7031,22.5928,64.5888,18.92,63.861,12.761A11.1168,11.1168,0,0,1,72.41.5752c3.4046-.867,6.8315-.9018,10,.9343a4.4689,4.4689,0,0,1,2.1361,5.7759C83.6,9.1928,81.3687,9.84,78.88,9.028c-1.08-.3521-1.6729-.8493-1.57-2.1012C77.42,5.5812,77.3345,4.22,77.3345,2.74Z" style="fill:#fff"/></svg>