<svg xmlns="http://www.w3.org/2000/svg" viewBox="0 0 52.2095 52.971"><title>Artboard 1</title><path d="M37.3788,14.5735c-14.5567,6.5348-7.5756,15.0227-7.5756,15.0227C19.3653,28.3986,22.39,15.7517,22.39,15.7517l14.9886-1.1782Z" style="fill:#fff;stroke:#fff;stroke-miterlimit:3.8636000000000004;stroke-width:0.015825439283452px"/><polygon points="12.135 29.589 13.818 29.589 13.818 37.859 12.135 35.866 12.135 29.589 12.135 29.589" style="fill:#fff;stroke:#fff;stroke-miterlimit:3.8636000000000004;stroke-width:0.015825439283452px"/><polygon points="16.925 29.589 18.608 29.589 18.608 41.606 16.925 40.533 16.925 29.589 16.925 29.589" style="fill:#fff;stroke:#fff;stroke-miterlimit:3.8636000000000004;stroke-width:0.015825439283452px"/><polygon points="11.826 28.061 14.138 28.061 14.138 28.671 13.818 29.29 12.135 29.29 11.826 28.671 11.826 28.061 11.826 28.061" style="fill:#fff;stroke:#fff;stroke-miterlimit:3.8636000000000004;stroke-width:0.015825439283452px"/><polygon points="16.616 28.061 18.928 28.061 18.928 28.671 18.608 29.29 16.925 29.29 16.616 28.671 16.616 28.061 16.616 28.061" style="fill:#fff;stroke:#fff;stroke-miterlimit:3.8636000000000004;stroke-width:0.015825439283452px"/><path d="M14.9226,24.421a.4619.4619,0,1,0,.4619-.462.4619.4619,0,0,0-.4619.462Zm-1.695,0a.4618.4618,0,1,0,.4616-.462.4616.4616,0,0,0-.4616.462Zm3.39,0a.4619.4619,0,1,0,.4617-.462.4617.4617,0,0,0-.4617.462ZM12.92,27.7518h-.7746V23.7463h6.4731v4.0055h-.7638a2.6777,2.6777,0,0,0-2.4674-2.4056A2.6047,2.6047,0,0,0,12.92,27.7518Z" style="fill:#fff"/><path d="M14.9226,24.421a.4619.4619,0,1,0,.4619-.462.4619.4619,0,0,0-.4619.462Z" style="fill:none;stroke:#fff;stroke-miterlimit:3.8636000000000004;stroke-width:0.015825439283452px"/><path d="M13.2276,24.421a.4618.4618,0,1,0,.4616-.462.4616.4616,0,0,0-.4616.462Z" style="fill:none;stroke:#fff;stroke-miterlimit:3.8636000000000004;stroke-width:0.015825439283452px"/><path d="M16.6181,24.421a.4619.4619,0,1,0,.4617-.462.4617.4617,0,0,0-.4617.462Z" style="fill:none;stroke:#fff;stroke-miterlimit:3.8636000000000004;stroke-width:0.015825439283452px"/><path d="M12.92,27.7518h-.7746V23.7463h6.4731v4.0055h-.7638a2.6777,2.6777,0,0,0-2.4674-2.4056A2.6047,2.6047,0,0,0,12.92,27.7518Z" style="fill:none;stroke:#fff;stroke-miterlimit:3.8636000000000004;stroke-width:0.015825439283452px"/><path d="M13.8387,27.7518h-.4544a1.9978,1.9978,0,1,1,3.9956,0h-.4544a1.58,1.58,0,0,0-1.5382-1.5383,1.51,1.51,0,0,0-1.5486,1.5383Z" style="fill:#fff;stroke:#fff;stroke-miterlimit:3.8636000000000004;stroke-width:0.015825439283452px"/><polygon points="11.846 23.127 18.918 23.127 18.918 23.436 11.846 23.436 11.846 23.127 11.846 23.127" style="fill:#fff;stroke:#fff;stroke-miterlimit:3.8636000000000004;stroke-width:0.015825439283452px"/><polygon points="11.846 22.817 11.846 19.895 13.322 19.895 13.322 21.279 14.613 21.279 14.613 19.895 16.162 19.895 16.162 21.279 17.452 21.279 17.452 19.895 18.928 19.895 18.928 22.817 11.846 22.817 11.846 22.817" style="fill:#fff;stroke:#fff;stroke-miterlimit:3.8636000000000004;stroke-width:0.015825439283452px"/><polygon points="11.485 22.001 10.06 22.001 9.626 23.901 11.743 23.901 11.743 23.632 11.485 23.632 11.485 22.001 11.485 22.001" style="fill:#fff;stroke:#fff;stroke-miterlimit:3.8636000000000004;stroke-width:0.015825439283452px"/><polygon points="11.743 24.18 9.513 24.18 9.358 25.749 11.743 25.749 11.743 24.18 11.743 24.18" style="fill:#fff;stroke:#fff;stroke-miterlimit:3.8636000000000004;stroke-width:0.015825439283452px"/><polygon points="9.41 26.027 11.743 26.027 11.743 26.461 9.41 26.461 9.41 26.027 9.41 26.027" style="fill:#fff;stroke:#fff;stroke-miterlimit:3.8636000000000004;stroke-width:0.015825439283452px"/><polygon points="9.296 26.73 11.743 26.73 11.743 26.926 9.296 26.926 9.296 26.73 9.296 26.73" style="fill:#fff;stroke:#fff;stroke-miterlimit:3.8636000000000004;stroke-width:0.015825439283452px"/><polygon points="11.743 27.225 9.41 27.225 9.513 28.743 11.505 28.743 11.433 28.536 11.433 27.741 11.743 27.741 11.743 27.225 11.743 27.225" style="fill:#fff;stroke:#fff;stroke-miterlimit:3.8636000000000004;stroke-width:0.015825439283452px"/><polygon points="9.513 29.073 9.844 30.808 11.805 30.808 11.805 29.393 11.66 29.073 9.513 29.073 9.513 29.073" style="fill:#fff;stroke:#fff;stroke-miterlimit:3.8636000000000004;stroke-width:0.015825439283452px"/><polygon points="11.805 31.138 10.06 31.138 10.607 32.769 11.805 32.769 11.805 31.138 11.805 31.138" style="fill:#fff;stroke:#fff;stroke-miterlimit:3.8636000000000004;stroke-width:0.015825439283452px"/><polygon points="11.805 33.089 10.607 33.089 11.805 35.371 11.805 33.089 11.805 33.089" style="fill:#fff;stroke:#fff;stroke-miterlimit:3.8636000000000004;stroke-width:0.015825439283452px"/><path d="M19.0419,37.229a14.6951,14.6951,0,0,1,2.3847-.413,8.3377,8.3377,0,0,1,3.18.8468,7.5364,7.5364,0,0,0,1.1563.32,3.1005,3.1005,0,0,0,1.5484-.32,5.1807,5.1807,0,0,1,2.1373-.6817,2.8315,2.8315,0,0,1,1.1458.1756l1.7135.66a3.1075,3.1075,0,0,0,2.22-.0927,11.9617,11.9617,0,0,1,1.8786-.66,3.0085,3.0085,0,0,1,1.7244.1649l.8981.2992-1.1559,1.1566a2.4008,2.4008,0,0,0-1.4666-.0621,18.0667,18.0667,0,0,0-1.8786.6611,2.8877,2.8877,0,0,1-2.22.0823l-1.7135-.6608a4.1817,4.1817,0,0,0-1.1872-.1653,6.4483,6.4483,0,0,0-2.0959.6608,2.656,2.656,0,0,1-1.5484.33,4.5542,4.5542,0,0,1-1.1563-.33,8.2219,8.2219,0,0,0-3.19-.8262,12.7606,12.7606,0,0,0-2.3746.4134V37.229Z" style="fill:#fff;stroke:#fff;stroke-miterlimit:3.8636000000000004;stroke-width:0.015825439283452px"/><path d="M19.0419,39.6967a10.0689,10.0689,0,0,1,2.3746-.4129,8.7475,8.7475,0,0,1,3.19.8257,4.6252,4.6252,0,0,0,1.1563.32,2.728,2.728,0,0,0,1.5484-.33c1.6622-.7642,2.1373-.6507,2.1373-.6507a2.9951,2.9951,0,0,1,1.1458.1656l1.7135.65a3.0451,3.0451,0,0,0,2.22-.0827,11.46,11.46,0,0,1,1.8786-.6506,6.5353,6.5353,0,0,1,.7331-.1135,42.0027,42.0027,0,0,1-3.954,2.4879,2.0176,2.0176,0,0,1-.8776-.1646c0,.01-1.7135-.6611-1.7135-.6611a3.9488,3.9488,0,0,0-1.1458-.1653,6.615,6.615,0,0,0-2.1373.6607,2.8943,2.8943,0,0,1-1.5484.341,6.2638,6.2638,0,0,1-1.1563-.3305,8.2965,8.2965,0,0,0-3.19-.8258,13.323,13.323,0,0,0-2.3746.4026V39.6967Z" style="fill:#fff;stroke:#fff;stroke-miterlimit:3.8636000000000004;stroke-width:0.015825439283452px"/><path d="M19.465,41.9574a10.9955,10.9955,0,0,1,1.9515-.3,9.0385,9.0385,0,0,1,3.19.8158,3.8946,3.8946,0,0,0,1.1563.33,2.7306,2.7306,0,0,0,1.5484-.33,4.734,4.734,0,0,1,2.1373-.6505,3.1513,3.1513,0,0,1,1.1458.165l1.1357.5059a17.6356,17.6356,0,0,1-12.265-.5367Z" style="fill:#fff;stroke:#fff;stroke-miterlimit:3.8636000000000004;stroke-width:0.015825439283452px"/><polygon points="29.978 10.739 30.237 10.718 30.365 14.881 29.891 14.881 29.978 10.739 29.978 10.739" style="fill:#fff"/><path d="M30.4758,19.9016c.176,3.5665.2476,7.7.2146,10.8169a10.9328,10.9328,0,0,1-1.1641-.0811c0,.0109.0274-.6928.0274-.6928l.7154.0568v-.2063l-.7236-1.0544.2061-7.9528.7242-.8863Z" style="fill:#fff;stroke:#fff;stroke-miterlimit:3.8636000000000004;stroke-width:0.079202817658753px"/><path d="M20.2088,23.8286a19.198,19.198,0,0,0,2.4979,10.1071l-.5366-.1032c-2.9423-4.3461-2.6121-10.0039-2.6121-10.0039Z" style="fill:#fff;stroke:#fff;stroke-miterlimit:3.8636000000000004;stroke-width:0.079202817658753px"/><path d="M41.7235,23.1781l.66-.01a18.2846,18.2846,0,0,1-4.0263,11.0983l-.5677-.093a22.6231,22.6231,0,0,0,3.9336-10.995Z" style="fill:#fff;stroke:#fff;stroke-miterlimit:3.8636000000000004;stroke-width:0.079202817658753px"/><path d="M24.6065,34.772a4.1521,4.1521,0,0,0,1.1563.33,2.3871,2.3871,0,0,0,.8154-.062,21.94,21.94,0,0,1-3.6031-1.1456,1.2027,1.2027,0,0,0,.093.3195,13.932,13.932,0,0,1,1.5384.5578Z" style="fill:#fff;stroke:#fff;stroke-miterlimit:3.8636000000000004;stroke-width:0.079202817658753px"/><path d="M22.8825,33.5022a32.29,32.29,0,0,0,4.3253,1.3421c.1655-.0723.2377-.1032.2377-.1032a10.6777,10.6777,0,0,1,1.4353-.5577,24.34,24.34,0,0,1-6.5869-1.7857l.5886,1.1045Z" style="fill:#fff;stroke:#fff;stroke-miterlimit:3.8636000000000004;stroke-width:0.079202817658753px"/><path d="M9.3586,26.4694a16.8659,16.8659,0,1,1,16.8659,16.866A16.8656,16.8656,0,0,1,9.3586,26.4694Z" style="fill:none;stroke:#fff;stroke-miterlimit:3.8636000000000004;stroke-width:0.212959516602986px"/><path d="M29.6357,11.1384s-6.7615-2.2636-7.7851.9855c-.0445.4448-.0445,1.5576-.9794.9345a1.61,1.61,0,0,0-1.631-.4418s-1.7514.2637-2.7753,2.8009c2.67-2.4923,4.6736-.89,4.6736-.89s1.2016.7121,1.217-.9758c.1183-3.6977,7.28-.9314,7.28-.9314V11.1384Z" style="fill:#fff"/><path d="M31.8316,18.4669c-.0523-.0719-.0079-.1934.1-.2714s.2363-.0825.2886-.0108.0082.1938-.0993.2718-.2368.0827-.289.01Z" style="fill:#fff"/><path d="M32.47,18.5466c.0521.0722.0076.1939-.0995.2719s-.2368.0826-.2891.0105-.0077-.1934.0994-.2715.2369-.0828.2892-.0109Z" style="fill:#fff"/><path d="M32.72,18.9087c.0525.0721.0081.1934-.1.2717s-.2363.0826-.289.0105-.0078-.1938.0993-.2715.2369-.0828.2892-.0107Z" style="fill:#fff"/><path d="M32.97,19.2708c.0522.0719.0078.1935-.1.2713s-.2363.0826-.289.0108-.0074-.1939.1-.2718.2369-.0826.2892-.01Z" style="fill:#fff"/><path d="M33.22,19.6321c.0523.0723.0078.1939-.0993.2721s-.2363.0822-.289.01-.0078-.1935.1-.2713.2364-.0826.2886-.0108Z" style="fill:#fff"/><path d="M33.47,19.9943c.052.0718.0074.1937-.1.2716s-.2368.0826-.289.01-.0081-.1934.099-.2712.2371-.0827.29-.0107Z" style="fill:#fff"/><path d="M33.72,20.3561c.0527.0725.0082.1936-.0992.2719s-.2365.0826-.2891.0105-.0078-.1936.1-.2717.2367-.0828.2886-.0107Z" style="fill:#fff"/><path d="M33.97,20.718c.0523.0721.0074.1937-.1.2715s-.2365.083-.2886.0109-.0083-.1938.0992-.2717.2364-.0827.2891-.0107Z" style="fill:#fff"/><path d="M34.22,21.08c.0525.0723.0081.1937-.0994.2716s-.2365.083-.2892.0109-.0076-.1938.1-.2719.2366-.0827.2889-.0106Z" style="fill:#fff"/><path d="M34.47,21.442c.0518.0721.0078.1938-.0994.2715s-.2367.0827-.289.0107-.0082-.1938.0993-.2716.2368-.0827.2891-.0106Z" style="fill:#fff"/><path d="M34.72,21.8039c.0527.0723.0083.1938-.0993.2716s-.2367.0827-.289.0109-.0078-.1939.1-.2719.2365-.0825.2886-.0106Z" style="fill:#fff"/><path d="M34.97,22.166c.0523.0717.0076.1938-.1.2714s-.2367.0829-.289.0107-.0077-.1939.0994-.2715.2369-.0826.2891-.0106Z" style="fill:#fff"/><path d="M35.22,22.5278c.0527.0718.0081.1937-.0993.2716s-.2369.0826-.2891.0105-.0077-.1936.0993-.2714.2369-.0827.2891-.0107Z" style="fill:#fff"/><path d="M35.47,22.89c.0519.0721.0074.1935-.1.2713s-.2368.083-.289.0111-.0078-.1938.0993-.272.2367-.0827.2894-.01Z" style="fill:#fff"/><path d="M35.72,23.2519c.0527.0719.0082.1932-.0992.2713s-.2365.0828-.2888.0107-.0078-.1935.0994-.2717.2363-.0826.2886-.01Z" style="fill:#fff"/><path d="M35.97,23.6132c.0523.0723.0078.1939-.1.2719s-.2365.0824-.2888.0106-.0078-.1935.0993-.2717.2366-.0827.2891-.0108Z" style="fill:#fff"/><path d="M36.22,23.9754c.0525.0722.0082.1937-.099.2718s-.2368.0825-.29.0105-.0078-.1938.0993-.2716.2373-.0826.2892-.0107Z" style="fill:#fff"/><path d="M36.47,24.3371c.0523.0723.0079.1937-.0993.2717s-.2367.0829-.289.0106-.0074-.1934.0992-.2714.2369-.0829.2891-.0109Z" style="fill:#fff"/><path d="M36.72,24.6991c.0527.0723.0078.1937-.1.2718s-.2363.0829-.2886.0106-.0081-.1938.099-.2715.2371-.0825.2893-.0109Z" style="fill:#fff"/><path d="M36.97,25.0611c.0527.0723.0078.1938-.1.2718s-.2365.0826-.2887.0105-.0078-.1935.1-.2714.2364-.0829.2886-.0109Z" style="fill:#fff"/><path d="M37.22,25.4231c.0527.0721.0073.1937-.1.2715s-.2369.0829-.2891.0108-.0077-.1939.1-.2717.2364-.0827.2891-.0106Z" style="fill:#fff"/><path d="M37.47,25.7852c.0519.0721.0076.1936-.1.2715s-.2365.0826-.2888.0105-.0081-.1936.0991-.2714.2368-.0829.29-.0106Z" style="fill:#fff"/><path d="M37.72,26.1468c.0526.0722.0078.1938-.0993.272s-.2369.0824-.2892.01-.0081-.1939.0993-.2717.2369-.0826.2892-.0107Z" style="fill:#fff"/><path d="M37.97,26.5089c.0522.0722.0082.1937-.0993.2718s-.2368.0824-.2887.01-.0082-.1936.0989-.2714.2368-.083.2891-.0107Z" style="fill:#fff"/><path d="M38.22,26.8709c.0523.0721.008.1938-.0993.2717s-.2367.0826-.2894.01-.0078-.1936.1-.2714.2369-.0831.289-.0108Z" style="fill:#fff"/><path d="M38.4694,27.2328c.0525.0721.0082.1937-.0993.2715s-.2363.0826-.289.0108-.0074-.1939.1-.2721.2365-.0823.2886-.01Z" style="fill:#fff"/><path d="M38.72,27.5947c.0523.0719.0078.1939-.0993.2717s-.2369.0826-.2894.0107-.0074-.1939.1-.272.2369-.0825.2891-.01Z" style="fill:#fff"/><path d="M38.97,27.9566c.0523.0721.0082.1937-.0993.2717s-.2365.0828-.289.0105-.0074-.1934.1-.2716.2363-.0827.2886-.0106Z" style="fill:#fff"/><path d="M38.8312,28.6007c-.0526-.072-.0081-.1936.0994-.2716s.2364-.0826.289-.0106.0078.1936-.0993.2716-.2368.0827-.2891.0106Z" style="fill:#fff"/><path d="M24.0713,25.7413c.0534-.0714.1827-.0641.2883.0155s.1486.2024.0952.2734-.183.0642-.289-.0158-.1483-.2019-.0945-.2731Z" style="fill:#fff"/><path d="M24.1766,26.3543c-.054.0713-.1831.0645-.2891-.0156s-.1481-.2023-.0946-.2732.1832-.0642.2888.0155.1482.2021.0949.2733Z" style="fill:#fff"/><path d="M23.8982,26.6784c-.0533.0713-.1827.0641-.2887-.0157s-.148-.2021-.0945-.2732.1827-.0642.289.0153.148.2026.0942.2736Z" style="fill:#fff"/><path d="M23.62,27.0028c-.0533.0708-.1826.0638-.2886-.0159s-.1487-.2022-.0945-.2735.1827-.0639.2885.0158.1484.2021.0946.2736Z" style="fill:#fff"/><path d="M23.3423,27.3267c-.0537.0712-.1827.064-.2889-.0155s-.1482-.2024-.0947-.2733.1831-.0643.2889.0157.1482.2019.0947.2731Z" style="fill:#fff"/><path d="M23.0644,27.6511c-.0536.0709-.1832.0639-.2889-.0158s-.1485-.2022-.0947-.2735.183-.0639.2891.0159.148.2022.0945.2734Z" style="fill:#fff"/><path d="M22.786,27.9749c-.0537.0712-.1827.0642-.2887-.0155s-.1483-.2022-.0945-.2736.1827-.0636.2886.0161.1483.202.0946.273Z" style="fill:#fff"/><path d="M22.5081,28.2992c-.0537.0712-.1829.0641-.289-.0157s-.148-.2021-.0945-.2733.1829-.0641.2887.0156.1483.2023.0948.2734Z" style="fill:#fff"/><path d="M21.8465,28.3343c.0534-.071.1829-.064.2887.0157s.1485.202.0948.2735-.183.064-.2889-.0158-.1483-.2021-.0946-.2734Z" style="fill:#fff"/><path d="M24.8111,26.1007c.0459-.0761.1753-.0826.289-.0144s.1686.1857.1225.2621-.1751.0826-.2887.0148-.1687-.1857-.1228-.2625Z" style="fill:#fff"/><path d="M24.98,26.7c-.0459.0763-.1749.083-.2888.0148s-.1685-.1856-.1225-.2618.1749-.0832.2887-.0146.1686.1852.1226.2616Z" style="fill:#fff"/><path d="M24.7373,27.0514c-.0456.076-.1749.0826-.2888.0144s-.1686-.1856-.123-.262.1757-.0828.2895-.0144.1683.1853.1223.262Z" style="fill:#fff"/><path d="M24.4947,27.4026c-.0458.0765-.1751.083-.2889.0144s-.1684-.1855-.1225-.2617.175-.0828.2885-.0146.1689.1853.1229.2619Z" style="fill:#fff"/><path d="M24.2522,27.7542c-.046.0762-.1753.0829-.2891.0145s-.1687-.1857-.1227-.2618.1753-.0831.2887-.0146.169.1854.1231.2619Z" style="fill:#fff"/><path d="M24.0092,28.1052c-.0457.0768-.1751.0832-.2885.015s-.1688-.1856-.123-.262.1752-.0827.2888-.0144.1685.1856.1227.2614Z" style="fill:#fff"/><path d="M23.7667,28.4568c-.0456.0767-.1753.0832-.289.0148s-.1684-.1857-.1226-.2621.1755-.0826.2889-.0144.1686.1855.1227.2617Z" style="fill:#fff"/><path d="M23.5239,28.8085c-.046.0763-.1749.083-.2887.0144s-.1684-.1855-.1228-.2616.1751-.083.2888-.0148.1687.1854.1227.262Z" style="fill:#fff"/><path d="M22.87,28.9126c.046-.0763.1754-.0828.2891-.0148s.1687.1857.1228.2622-.1755.0828-.2891.0146-.1687-.1857-.1228-.262Z" style="fill:#fff"/><path d="M23.3634,25.0231c.0564-.0693.1853-.0579.2884.0255s.141.2076.085.2767-.1851.0576-.2881-.0256-.1409-.2073-.0853-.2766Z" style="fill:#fff"/><path d="M23.4477,25.6392c-.0562.07-.1851.0576-.2881-.0254s-.1412-.2072-.0852-.2769.1852-.0574.2879.026.1413.2073.0854.2763Z" style="fill:#fff"/><path d="M23.1585,25.9536c-.0564.0693-.1849.0575-.288-.0255s-.1412-.2076-.0853-.2765.1852-.0578.288.0256.1413.2073.0853.2764Z" style="fill:#fff"/><path d="M22.8694,26.2679c-.0563.069-.1853.0578-.2881-.0256s-.1415-.2075-.0853-.2765.1852-.0577.2881.0257.1411.2072.0853.2764Z" style="fill:#fff"/><path d="M22.58,26.5824c-.056.069-.1852.0577-.2882-.0259s-.141-.2074-.0851-.2767.185-.0576.2882.026.1412.2072.0851.2766Z" style="fill:#fff"/><path d="M22.2909,26.8965c-.0559.0691-.1853.0575-.2884-.026s-.1412-.2071-.0849-.2762.185-.0577.2882.0257.141.2068.0851.2765Z" style="fill:#fff"/><path d="M22.0014,27.2108c-.0559.0693-.1849.0576-.2881-.026s-.1412-.2072-.0847-.2761.1846-.0579.2879.0256.1413.2072.0849.2765Z" style="fill:#fff"/><path d="M21.7124,27.525c-.056.0693-.185.0577-.2884-.0257s-.1408-.2074-.0848-.2767.1848-.0574.2883.0259.1408.2072.0849.2765Z" style="fill:#fff"/><path d="M21.05,27.5373c.0564-.07.1853-.0578.288.0256s.1415.2071.0856.2762-.1851.0578-.2883-.0257-.1413-.207-.0853-.2761Z" style="fill:#fff"/><path d="M31.1829,19.0521c-.0373-.0761.0288-.1808.148-.2336s.2457-.0342.2831.042-.0289.1809-.148.2335-.246.0341-.2831-.0419Z" style="fill:#fff"/><path d="M31.8023,19.27c.0375.0759-.0294.18-.1484.2334s-.2459.0339-.2827-.0418.029-.1809.1479-.2341.2458-.0339.2832.0425Z" style="fill:#fff"/><path d="M31.99,19.6792c.0379.0761-.0288.1809-.1477.2335s-.2462.0341-.2833-.0421.029-.1806.1483-.2337.2457-.0338.2827.0423Z" style="fill:#fff"/><path d="M32.1784,20.0884c.0375.0763-.0289.1808-.1478.2338s-.2461.0337-.2831-.0423.0288-.1806.1477-.2334.2462-.0339.2832.0419Z" style="fill:#fff"/><path d="M32.3667,20.4978c.037.0761-.0289.1809-.1479.2337s-.2461.034-.2831-.0422.0289-.1807.1478-.2337.2461-.0341.2832.0422Z" style="fill:#fff"/><path d="M32.5546,20.907c.0378.0764-.029.1809-.1479.2339s-.2457.0339-.2831-.0423.0288-.1808.1482-.2336.2457-.0339.2828.042Z" style="fill:#fff"/><path d="M32.7428,21.3166c.0374.0759-.0288.1808-.1478.2336s-.2462.0338-.2832-.0422.029-.1807.148-.2336.2459-.0342.283.0422Z" style="fill:#fff"/><path d="M32.9314,21.7257c.0371.0766-.0288.181-.1482.2339s-.2459.0338-.2831-.0422.0285-.1805.1479-.2336.246-.034.2834.0419Z" style="fill:#fff"/><path d="M33.12,22.1349c.0372.0763-.0292.181-.1482.2338s-.2457.034-.2832-.042.0287-.1807.148-.2337.2457-.0339.2834.0419Z" style="fill:#fff"/><path d="M33.3077,22.5444c.0375.0766-.029.1809-.1482.2337s-.2457.034-.2832-.0422.0289-.1807.1482-.2334.2458-.0341.2832.0419Z" style="fill:#fff"/><path d="M33.496,22.9539c.037.0763-.0289.18-.1484.2335s-.2456.0341-.283-.0418.0288-.1809.1478-.2339.2461-.0338.2836.0422Z" style="fill:#fff"/><path d="M33.6839,23.3635c.0374.0759-.029.18-.1479.2335s-.2457.0336-.2831-.0423.0288-.1806.1477-.2335.2462-.0341.2833.0423Z" style="fill:#fff"/><path d="M33.8717,23.7728c.0378.0761-.0285.1807-.1475.2334s-.2461.034-.2831-.042.0292-.1809.148-.2337.2459-.0341.2826.0423Z" style="fill:#fff"/><path d="M34.06,24.1819c.0374.0766-.0289.1811-.1483.2341s-.2457.0337-.2827-.0427.0288-.1807.1478-.2334.2459-.0341.2832.042Z" style="fill:#fff"/><path d="M34.2486,24.5913c.0372.0763-.0288.1808-.1482.2334s-.2457.034-.2832-.0418.029-.1811.1484-.2338.2457-.0338.283.0422Z" style="fill:#fff"/><path d="M34.4368,25.0008c.0373.076-.0292.18-.1481.2336s-.2457.034-.2832-.0424.029-.18.1479-.2334.246-.0342.2834.0422Z" style="fill:#fff"/><path d="M34.6251,25.41c.0368.0763-.0292.1809-.1482.2336s-.2457.034-.2836-.042.0294-.1809.1488-.2336.2457-.034.283.042Z" style="fill:#fff"/><path d="M34.8135,25.8193c.0367.0762-.0294.1809-.1482.2337s-.2461.0339-.2835-.0423.0292-.1808.1481-.2334.2458-.0342.2836.042Z" style="fill:#fff"/><path d="M35.0014,26.2287c.037.0765-.0289.1808-.1483.2334s-.2457.0341-.2831-.0419.0288-.1808.1482-.2335.2457-.034.2832.042Z" style="fill:#fff"/><path d="M35.19,26.6381c.0371.0764-.0292.1806-.1482.2336s-.2461.034-.2831-.0419.0288-.1812.1482-.2338.2453-.034.2831.0421Z" style="fill:#fff"/><path d="M35.3779,27.0474c.037.0761-.0292.1806-.1483.2338s-.246.0337-.2835-.0423.0289-.1806.1487-.2335.2453-.034.2831.042Z" style="fill:#fff"/><path d="M35.5658,27.4568c.0376.0764-.0289.1809-.1479.2336s-.246.034-.2832-.0419.0291-.1809.1479-.2339.2459-.0342.2832.0422Z" style="fill:#fff"/><path d="M35.7544,27.866c.0371.0767-.0292.1808-.1482.2339s-.2461.0339-.2832-.0423.029-.1805.148-.2335.2457-.034.2834.0419Z" style="fill:#fff"/><path d="M35.9422,28.2753c.0375.0764-.0292.1811-.1481.2338s-.2456.034-.283-.042.0292-.1812.1481-.2338.2456-.034.283.042Z" style="fill:#fff"/><path d="M36.1307,28.6847c.0374.0764-.0293.1808-.1484.2339s-.2457.034-.283-.0423.0288-.1809.148-.2339.2459-.0337.2834.0423Z" style="fill:#fff"/><path d="M36.3185,29.0942c.0374.0763-.029.1807-.1479.2335s-.2458.0341-.2831-.042.0289-.1807.1483-.2337.2452-.0338.2827.0422Z" style="fill:#fff"/><path d="M36.0754,29.695c-.037-.076.0288-.1807.1483-.2335s.2456-.0341.2831.0419-.0288.181-.1483.2338-.2457.0339-.2831-.0422Z" style="fill:#fff"/><path d="M34.7156,31.82a18.0813,18.0813,0,0,0,4.9122-1.7862s.4336-.97.7637-1.8582a15.2087,15.2087,0,0,1-7.0345,2.73" style="fill:#fff"/><path d="M36.0972,32.9946a17.5362,17.5362,0,0,0,2.6633-1.0723l.7533-1.3624a13.1731,13.1731,0,0,1-4.2849,1.6663" style="fill:#fff"/><path d="M33.16,32.5616a23.4416,23.4416,0,0,1-11.506-1.9085l.444,1.1766a20.0432,20.0432,0,0,0,11.8057,1.6971" style="fill:#fff"/><path d="M37.2332,34.1568c.0574.0033.0923.0063.0923.0063.63-.8984,1.1044-1.652,1.1044-1.652-.8064.3826-1.4469.6446-1.971.8326" style="fill:#fff"/><path d="M34.2164,33.9536c-1.2912.2239-3.54.364-3.54.364.4856.1653,1.6312.6194,1.6312.6194a2.9472,2.9472,0,0,0,2.22-.0827c.0841-.0331.1693-.0657.2542-.0985" style="fill:#fff"/><path d="M33.16,32.5616c.2587.3218.51.6505.7437.9652" style="fill:#fff"/><path d="M34.7156,31.82a13.7481,13.7481,0,0,0-1.3586-.9145" style="fill:#fff"/><path d="M36.4589,33.3437c.3158.3133.5778.5937.7743.8131" style="fill:#fff"/><path d="M32.7914,32.1146a10.7644,10.7644,0,0,0-1.0077-1.0608,21.48,21.48,0,0,1-10.78-2.4866l.4336,1.4661A21.6575,21.6575,0,0,0,32.7914,32.1146Z" style="fill:#fff"/><path d="M36.0972,32.9946c-.2635-.2479-.5529-.5072-.8683-.7684" style="fill:#fff"/><path d="M37.712,34.7227l.0164.021-.0935.0823a3.13,3.13,0,0,1-2.4094.5042l-.0607-.0074-.0334-.051c-.0022-.004-.0359-.054-.0844-.1266-.1628.0619-.3329.1282-.5193.2049a2.9562,2.9562,0,0,1-2.22.0827l-1.7135-.6608a2.8291,2.8291,0,0,0-1.1458-.1651,4.5733,4.5733,0,0,0-2.1373.66,3.1551,3.1551,0,0,1-1.5484.32,4.8506,4.8506,0,0,1-1.1563-.32,8.1719,8.1719,0,0,0-3.19-.8259,10.3536,10.3536,0,0,0-2.3746.4128v1.3939a12.8344,12.8344,0,0,1,2.3746-.413,8.1169,8.1169,0,0,1,3.19.8259,4.8138,4.8138,0,0,0,1.1563.32s.4028.1652,1.5484-.32a5.8865,5.8865,0,0,1,2.1373-.66,3.6694,3.6694,0,0,1,1.1458.165s1.5589.5884,1.59.6092a2.8847,2.8847,0,0,0,2.3537-.0311,12.9768,12.9768,0,0,1,1.8682-.66,3.129,3.129,0,0,1,1.7244.1648s.7639.2683,1.5589.4955l.8154-1.3109s-.3922.1238-2.3743-.5785C38.0537,34.8543,37.9361,34.7828,37.712,34.7227Z" style="fill:#fff"/><path d="M34.2164,33.9536c.2224.3084.4136.5817.5655.8022" style="fill:#fff"/><path d="M32.0236,30.5224a15.7132,15.7132,0,0,1,5.3331,4.18,3.1358,3.1358,0,0,1-2.0411.37c-.2385-.3608-2.4739-3.7057-3.8179-4.5591C31.5413,30.4881,31.667,30.4481,32.0236,30.5224Z" style="fill:#fff"/><path d="M7.0036,17.8773l-.2413-.2483c.2807-.5224.1056-.6193-1.5855-1.5568-1.9805-1.0977-2.1084-1.1687-2.4836-.6193l-.2473-.2692c.0821-.1481.2286-.3485.4454-.7394s.365-.7223.4734-.9176A1.2547,1.2547,0,0,1,5.149,12.913a1.1547,1.1547,0,0,1,.5947,1.263,1.4023,1.4023,0,0,1,1.7889-.4c.4247.2354,1.2332.9214.4379,2.3563l-.9669,1.7449Zm.2724-1.4605a5.955,5.955,0,0,0,.3755-.5668.9561.9561,0,0,0-.45-1.35c-.9972-.5526-1.4378.2422-1.684.6867-.0447.081-.0829.1654-.121.25.9972.5523,1.5688.8079,1.879.98Zm-2.3-1.2216c.0525-.0945.1114-.1853.1634-.2794.4893-.8825-.06-1.2579-.2893-1.3845a.8163.8163,0,0,0-1.2153.365c-.1381.2493-.1448.4047.0663.548.1436.106.6386.389.76.4562l.5149.2947ZM11.05,11.7787l-.1356-.32c.3457-.3417.2845-.4825-.1839-1.0447-.2072-.2386-.4777-.5849-.8718-1.0389-.5054-.5807-.8648-.9827-1.0988-1.2286-.3147-.3387-.5071-.4776-.9309-.12l-.14-.3372c.1446-.1154.3747-.2854.6538-.5274.3081-.268.6018-.5641.91-.8318a1.2379,1.2379,0,0,1,1.8587.0477,1.264,1.264,0,0,1-.0594,1.787c.2863-.1164.4279-.1887,1.16.1137l.7165.2958c.78.322.8728.3232,1.305-.0015l.1243.3306L13.52,9.631l-1.4535-.6039c-1.1723-.4912-1.2427-.5018-1.7-.1244.0357.041.0965.1107.1468.1689.2928.3369.537.5945.72.7927.4427.4624.7015.666,1.3794.1072l.1235.342L11.05,11.7787Zm-.988-3.203a3.282,3.282,0,0,0,.3161-.2235A.9425.9425,0,0,0,10.604,6.91a.8137.8137,0,0,0-1.2847-.0571c-.3082.2679-.3146.437-.0943.7253.1052.1327.251.3121.4329.5215l.4036.4758Zm7.49-1.35-.0144-.3434c.29-.1256.4373-.193.3024-.6289-.1041-.34-.3406-.9671-.7766-2.0455-.2135-.5284-.3732-.9042-.4872-1.1655-.2569-.5941-.3595-.5609-.8111-.4032l-.0055-.3639,1.6568-.6693L17.43,1.95c-.3571.1442-.384.2631-.1759.86.1388.4262.3741,1.0285.68,1.7856.2857.7071.4759,1.137.6085,1.3823.1815.3259.3671.2921.7872.1806l.007.3461-1.7852.7214Zm7.06-1.6969c-.3541.0187-1.3109.0069-1.4341.0134l-.0818-1.5613.4711-.2792c.0035.0692.0074.1387.0108.208.0462.8766.2208,1.1219,1.2209,1.07a.9334.9334,0,0,0,.6744-.2283A.9328.9328,0,0,0,25.676,4.07C25.61,2.8083,23.0088,3.0677,22.93,1.5682c-.0276-.5307.219-1.4154,1.6654-1.4911C24.9875.0564,25.69.0734,25.9369.0683l.0656,1.2537-.4421.2471-.01-.1923c-.0348-.6618-.2683-.85-.9528-.8139-.1772.0094-.9462.05-.9073.7959.0591,1.1226,2.64.926,2.7234,2.5105a1.42,1.42,0,0,1-.4613,1.2039,1.9629,1.9629,0,0,1-1.3411.456Zm6.3433.3521.1708-.2522c.6469.1779.7606.0527,1.0063-.6044.1435-.3664.3487-.9234.6085-1.7217.1736-.5348.447-1.4016.5349-1.7458-.8279-.2692-1.26-.4095-1.5925.4384l-.4679.0182L31.6792.5851,35.84,1.9373,35.438,3.1755l-.4678.0178c.2287-.703.1894-1.0314-.7116-1.3244-.0878-.0285-.1705-.0474-.2608-.0687-.1791.5253-.4552,1.326-.6076,1.7951-.2571.791-.4087,1.3573-.5111,1.7212-.2133.7321.0165.8476.62,1.0841l-.1933.2448-2.3515-.7641ZM38.6619,9.699c-.6859-.5361-1.753-1.8977-.2449-3.8276a2.5482,2.5482,0,0,1,1.7022-.9281,2.64,2.64,0,0,1,2.0836.6112A2.3267,2.3267,0,0,1,42.5767,9.18a2.7693,2.7693,0,0,1-3.9148.5192Zm.49-3.5668c-.3935.5037-1.4483,1.9283.1178,3.1518a1.9439,1.9439,0,0,0,1.4139.5181c.26-.0321.5189-.064,1.1257-.8408,1.1569-1.4811.637-2.4542-.17-3.085a1.8354,1.8354,0,0,0-1.2594-.5147,1.9023,1.9023,0,0,0-1.2278.7706Zm4.1528,8.139.3457-.0593c.2352.4244.4906.2826,1.1122-.0266.1482-.0819.3139-.165.5155-.2769.8894-.4927,1.5028-.8328,1.8861-1.0627.6218-.3714.7118-.4474.4384-1.0361l.322-.0549,1.0492,1.8932-.3294.0415c-.4055-.62-.4055-.62-1.9414.2309-.5725.3172-2.02,1.1548-2.2963,1.3075a6.945,6.945,0,0,0,.3485.7234c.3435.62.6585.9028,1.4872.4432l.2864.3259L45.1,17.5119l-1.7958-3.2407Z" style="fill:#fff;stroke:#fff;stroke-width:0.133100030131882px"/><path d="M.1118,31.99a2.3974,2.3974,0,0,1,2.1757-2.8756,2.56,2.56,0,0,1,3.2111,2.0667,9.0422,9.0422,0,0,1,.1207,1.0835l-1.3627.2546L4.02,32.1529c.4856-.0856,1.0264-.1668.8773-1.0136a1.8222,1.8222,0,0,0-.6134-1.1726,3.2373,3.2373,0,0,0-1.7029-.1646c-1.426.2514-1.98,1.0108-1.7566,2.2807a3.2678,3.2678,0,0,0,.4179,1.1723l-.6437-.0134A3.2171,3.2171,0,0,1,.1118,31.99Zm1.3568,4.32.3386-.0306c.1181.2585.1816.3893.6139.2437.3368-.1128.959-.3617,2.03-.8161.5247-.2227.8976-.3887,1.1574-.5062.59-.2658.5592-.3582.4125-.7627l.3584-.0239.6282,1.48-.3384.0306c-.1357-.3191-.2521-.3374-.8442-.1159-.422.1486-1.02.3951-1.7719.7145-.702.2975-1.1293.4939-1.3735.6278-.3242.1828-.2943.3509-.1926.73l-.3409.024L1.4686,36.31Zm2.7057,5.2045.2813-.11c.38.47.5409.43,1.1244.04.33-.2136.822-.5455,1.5011-1.0392.455-.33,1.1862-.87,1.4609-1.0951-.46-.6339-.7009-.9653-1.4649-.47l-.363-.2245,1.2153-.8829,2.3141,3.1858-1.053.765-.3632-.2247c.5982-.4344.7678-.712.2668-1.4017-.0492-.0675-.1-.1248-.1551-.1874-.453.3206-1.1464.8071-1.5452,1.0968-.6731.4893-1.13.8555-1.4276,1.0887-.6049.465-.5015.6727-.19,1.1666l-.2941.0934-1.3077-1.8ZM9.21,46.927l.2534-.2173c.4773.3339.712.0471.9993-.3631l.7818-1.1167.1228-1.6259c.0771-.8955.0745-1.0855-.2828-1.3731l.2794-.2179,1.88,1.3163-.2752.2114c-.0511-.0357-.1022-.0713-.1534-.1075-.1475-.1031-.4655-.3259-.6734-.029a1.8426,1.8426,0,0,0-.1874.7994l-.0987.89a12.0794,12.0794,0,0,0,2.08-1.242l.8669.3815c-.7427.3353-1.3509.54-2.3308,1.02-.2247.1153-.45.22-.6707.3295l-.8348,1.1923c-.41.587-.2972.7512.174,1.081l-.2952.2169L9.21,46.927Zm11.6759,5.2414a2.3977,2.3977,0,0,1-1.851-3.0945,2.56,2.56,0,0,1,3.1189-2.2034,9.11,9.11,0,0,1,1.05.294l-.2747,1.359-.4284.0823c.1023-.4822.23-1.0145-.6111-1.193a1.8189,1.8189,0,0,0-1.3171.1294,3.2364,3.2364,0,0,0-.79,1.5172c-.3013,1.4165.1949,2.215,1.4565,2.4831a3.2734,3.2734,0,0,0,1.2434.0519l-.2534.5915a3.2217,3.2217,0,0,1-1.343-.0175Zm6.6784.7361c-.7833,0-2.2947-.4159-2.2947-2.8652a2.6924,2.6924,0,0,1,.6935-1.7793,2.2605,2.2605,0,0,1,1.8161-.8012c1.4835,0,2.2735.955,2.2735,2.6265a2.6413,2.6413,0,0,1-2.4884,2.8192Zm-1.629-3.1121c0,.6395.0419,2.4113,1.83,2.4113a1.64,1.64,0,0,0,1.29-.4621c.1664-.1851.3328-.37.3328-1.3558,0-1.88-.908-2.326-1.83-2.326a1.54,1.54,0,0,0-1.1784.37,2.0289,2.0289,0,0,0-.4436,1.363Zm9.4,1.6831c-1.5767.574-2.0332-.62-2.3823-1.5593l-.5863-1.59c-.2806-.7913-.3477-.9557-.775-.8331l-.0353-.34,1.9021-.6923.0066.342c-.7075.3066-.7606.4244-.5229,1.1574.1383.4414.3561,1.1.7249,2.1134.1316.3621.4844,1.332,1.488.9665a1.2684,1.2684,0,0,0,.7631-.6383c.119-.322.1376-.3123-.5055-2.0783-.258-.709-.4279-1.1147-.5623-1.4019-.2271-.4834-.4068-.45-.7771-.3318l-.0156-.3473,1.4335-.5215.0138.3228c-.2721.1646-.3409.28-.1219.8806.2109.5793.752,2.005.9336,2.5046a1.5381,1.5381,0,0,1-.9814,2.0455Zm4.7264-2.3323-.1227-.3151c.37-.358.1894-.6463-1.0437-2.2247-1.2186-1.56-1.3183-1.6873-1.8834-1.3631l-.1132-.3028.7378-.576a40.6746,40.6746,0,0,0,4.52,1.4049l-.616-.7993c-.0985-.1377-.26-.344-.3927-.514-.2561-.328-.4755-.5863-.6471-.7943-.3442-.3961-.7912-.5063-1.4235-.0314l-.102-.3114L40.57,42.07l.122.325c-.3152.3732-.2966.3976,1.2971,2.4375.4316.5519.8939,1.11,1.3364,1.6538l-.2191.3953c-.7108-.2461-1.4157-.5063-2.1347-.7171l-2.4494-.7252c.1375.1759.2795.3579.4222.54l.3887.4977c1.2094,1.5481,1.3309,1.6584,2.1965,1.0889l.1214.3354-1.5892,1.2423Zm7.4364-7.2341a2.3977,2.3977,0,0,1-3.572.4949,2.5606,2.5606,0,0,1-.81-3.7321,9.05,9.05,0,0,1,.6813-.8516l1.1436.7841-.092.4262c-.4035-.2827-.8437-.6078-1.3367.0964a1.8247,1.8247,0,0,0-.3958,1.2635,3.2481,3.2481,0,0,0,1.0881,1.32c1.1863.8305,2.1154.6856,2.855-.3706a3.2731,3.2731,0,0,0,.5332-1.1244l.4463.4646a3.2238,3.2238,0,0,1-.5411,1.2289Zm2.2043-3.95-.2531-.2264c.1085-.2629.1608-.3992-.24-.6157-.3123-.1692-.919-.4543-1.9817-.9275-.5207-.2317-.8964-.3916-1.16-.5012-.5967-.25-.6433-.165-.8391.2185l-.2616-.2458.6541-1.4691.2531.2269c-.1408.3164-.0745.414.4911.6963.3969.2067.9851.4766,1.7311.8087.6963.31,1.1315.4884,1.3957.5758.355.1128.4578-.0241.6649-.3565l.2505.2327-.7052,1.5833Zm1.8509-4.7675-.3085-.16c.076-.43-.2122-.4811-.89-.6286-.1667-.0294-.3476-.0681-.5751-.1085-1.0015-.1765-1.6919-.298-2.134-.3622-.7168-.105-.8339-.1046-.9807.4609l-.2864-.1492.3384-1.9182.2838.1629c-.0623.6643-.0623.6643,1.6674.9693.6445.1136,2.2951.3768,2.6066.4317a5.7391,5.7391,0,0,0,.17-.7023c.1109-.6277.0366-1.0073-.8965-1.1715l-.0248-.3917,1.6083.2837-.5787,3.2838Z" style="fill:#fff;stroke:#fff;stroke-width:0.133100030131882px"/></svg>