<svg xmlns="http://www.w3.org/2000/svg" viewBox="0 0 59.9347 50.5132"><title>Artboard 1</title><path d="M59.1765.0352c-.4543,1.0734-.04,2.2205-.2684,3.401a2.7773,2.7773,0,0,0-4.9323,1.4926c-.3648,2.0557.4087,3.8168,1.87,4.2588.0474.014.0982.0175.1456.03a2.7014,2.7014,0,0,0,2.9117-.9594c.16,1.0068.2438,1.0682,1.0138.8016,0-2.7626-.0246-5.5234.0175-8.2843C59.9447.1474,59.8027-.0981,59.1765.0352Zm-2.403,8.4332c-.0491-.0034-.0982-.0034-.1474-.0105C55.3387,8.2913,54.6055,6.8372,54.937,5.11a2.0111,2.0111,0,0,1,2.6012-1.7979c.93.24,1.4787,1.1787,1.4857,2.5328C59.0309,7.6,58.21,8.56,56.7735,8.4684Z" style="fill:#fff"/><path d="M20.12.0346a1.2385,1.2385,0,0,1,.2736,1.0325c-.0031.7141-.0009,1.4283-.0009,2.2961a2.9164,2.9164,0,0,1,2.2648-.9739,1.9068,1.9068,0,0,1,2.0375,2.0366c.0238,1.3055.01,2.6118.0109,3.9177,0,.3531.0116.743-.4876.7452-.5071.0023-.4852-.4086-.4887-.7476-.0114-1.1334.0063-2.267-.0083-3.4-.016-1.2385-.3656-1.6606-1.3567-1.6918a1.7175,1.7175,0,0,0-1.9552,1.7333c-.039,1.0828-.0147,2.168-.0163,3.2521a1.0745,1.0745,0,0,1-.1444.7093.4575.4575,0,0,1-.54.1207c-.2555-.0827-.304-.3077-.3061-.5346-.008-.8377-.0061-1.6755-.0064-2.5133C19.3956,4.3411,19.4,2.6655,19.3924.99a1.1943,1.1943,0,0,1,.2832-.9553Z" style="fill:#fff"/><path d="M15.3753,2.3991c.0045-.49.0339-.9818.0058-1.47a.8549.8549,0,0,1,.448-.8944h.1479c.2737.25.508.5141.3218.9244-.4331.0309-.5615.2861-.5788.6919C15.7083,1.9253,15.855,2.3218,15.3753,2.3991Z" style="fill:#fff"/><path d="M39.9314.1729A.1177.1177,0,0,0,39.944.0346H40.98a.2776.2776,0,0,1,.0288.1236A.7572.7572,0,0,1,39.9314.1729Z" style="fill:#fff"/><path d="M59.7869,48.1064a.5407.5407,0,0,1,.13.01v.74l-.0577.0191-.0607-.005A.49.49,0,0,1,59.7869,48.1064Z" style="fill:#fff"/><path d="M2.9326,7.73c.5234-1.592.986-2.987,1.4394-4.385.1538-.4742.2515-.9613.9255-.9546.6879.0068.7462.5391.8942.993.4037,1.2384.7925,2.4817,1.1843,3.7239.0513.1629.0628.343.2653.4658.5279-1.4555,1.05-2.9043,1.5809-4.35a2.5658,2.5658,0,0,1,.32-.6569.5479.5479,0,0,1,.7369-.1049.4162.4162,0,0,1,.1743.5752Q9.3961,5.829,8.3353,8.62a.74.74,0,0,1-.8224.4769c-.4174-.0111-.5978-.26-.7152-.6209C6.3037,6.9584,5.7988,5.4445,5.2354,3.74c-.3686,1.12-.6838,2.0765-.9974,3.033q-.2871.8758-.57,1.7531a.7288.7288,0,0,1-.7541.575.7609.7609,0,0,1-.8076-.5105Q1.0851,5.8635.0651,3.1357c-.12-.32-.0944-.6012.2724-.715a.6083.6083,0,0,1,.8133.4324c.4576,1.2458.9067,2.4947,1.36,3.742C2.6285,6.9179,2.75,7.2391,2.9326,7.73Z" style="fill:#fff"/><path d="M5.2344,16.1246c-.543,1.6444-1.0355,3.1092-1.5073,4.5806-.1354.4225-.2683.7857-.8115.7955-.5189.0093-.7251-.2886-.8836-.7224C1.4081,19.0714.7654,17.3714.1255,15.67c-.1268-.337-.2761-.6878.209-.8456.4348-.1413.6967.085.8433.4906.5591,1.5471,1.1233,3.0923,1.746,4.8044.3239-.9654.6054-1.7907.8773-2.6192.23-.7.4483-1.4034.6716-2.1054a.762.762,0,0,1,.8125-.6027.7614.7614,0,0,1,.7913.6221c.422,1.36.8628,2.7151,1.2992,4.071.051.1586.1193.3116.2261.5872.5566-1.5346,1.0688-2.9522,1.5862-4.3681a3.5718,3.5718,0,0,1,.2935-.673.5641.5641,0,0,1,.7832-.1805c.2825.1314.2635.38.1674.6332Q9.3859,18.2395,8.341,20.9952a.7438.7438,0,0,1-.8083.5025.7386.7386,0,0,1-.7278-.608C6.3018,19.35,5.7914,17.8122,5.2344,16.1246Z" style="fill:#fff"/><path d="M1.4792,27.9978c1.67-1.3361,3.1239-1.2846,4.2062.1689a2.8085,2.8085,0,0,1,2.71-1.0808,1.8075,1.8075,0,0,1,1.79,1.8055c.051,1.4515.0171,2.9058.0209,4.3589.001.3735-.147.6456-.55.6266-.3595-.0169-.4841-.2864-.4841-.6221,0-1.2561.0027-2.5122-.0029-3.7683-.0049-1.1091-.354-1.5361-1.2918-1.6a1.72,1.72,0,0,0-1.977,1.4645c-.0813,1.1274-.0254,2.264-.0631,3.3954-.0141.4249.2049,1.1006-.4876,1.1105-.7515.0106-.5248-.6954-.5378-1.14-.0295-1.009-.0054-2.0194-.0076-3.0292-.0027-1.2653-.3753-1.757-1.349-1.7905a1.7842,1.7842,0,0,0-1.9617,1.8346c-.0229,1.1326-.0049,2.2659-.0064,3.3989,0,.246.013.4952-.2338.66a.4927.4927,0,0,1-.7928-.4091C.4334,31.4851.4457,29.5885.45,27.6921a.4856.4856,0,0,1,.4921-.5355c.2849-.0086.4342.1944.4795.4682C1.4412,27.7428,1.4582,27.8612,1.4792,27.9978Z" style="fill:#fff"/><path d="M17.8747,21.0412c-.5244-.2824-.4385-.7-.44-1.1278-.0053-.9366,0-1.8716-.0018-2.8082-.0035-1.5488-.5823-2.1644-2.1469-2.3206a4.2348,4.2348,0,0,0-1.3243.0562,2.2381,2.2381,0,0,0-1.7856,1.2681c-.114.2737-.1438.6157.207.7665.3017.1281.5227-.0508.6507-.3262a1.8827,1.8827,0,0,1,2.1206-.97c.7858.0526,1.2208.4438,1.2436,1.098.0281.7788-.6016.8279-1.1138.9139a16.5249,16.5249,0,0,0-2.1732.4069,1.7128,1.7128,0,0,0-1.3874,1.9014,1.8843,1.8843,0,0,0,1.7979,1.74,3.436,3.436,0,0,0,2.873-.9822.9889.9889,0,0,0,1.2892.8787C17.9677,21.4937,18.1975,21.2149,17.8747,21.0412Zm-4.0132-.2122c-.5823-.1017-1.0418-.3666-1.098-1.0068A1.0542,1.0542,0,0,1,13.67,18.654c.88-.207,1.7785-.34,2.7011-.51C16.5,20.0888,15.5015,21.12,13.8615,20.829Z" style="fill:#fff"/><path d="M17.8168,33.3c-.4507-.1473-.3823-.51-.3841-.8489q0-1.626,0-3.2537a1.6938,1.6938,0,0,0-1.0138-1.7365,3.8117,3.8117,0,0,0-3.4817.1789,1.5035,1.5035,0,0,0-.7893.9332c-.0684.27-.0684.5595.2561.6875a.4544.4544,0,0,0,.6-.2911c.51-1.0647,1.4418-1.0682,2.403-.963a1.033,1.033,0,0,1,.991,1.091c.0193.6315-.4823.7349-.9471.8226a18.12,18.12,0,0,0-2.3908.4526,1.6823,1.6823,0,0,0-1.3365,1.8592,1.8385,1.8385,0,0,0,1.67,1.6944,3.4372,3.4372,0,0,0,3.0011-.9419,1.0175,1.0175,0,0,0,1.2243.9.4015.4015,0,0,0,.3561-.228A.2454.2454,0,0,0,17.8168,33.3Zm-1.4049-2.1644a2.1231,2.1231,0,0,1-3.038,1.8768,1.0119,1.0119,0,0,1-.6139-.856.9619.9619,0,0,1,.5227-.984,9.7869,9.7869,0,0,1,2.94-.6192C16.6206,30.476,16.2435,31.004,16.4119,31.1356Z" style="fill:#fff"/><path d="M6.3947,49.8053c-.5385-.2017-.4332-.6578-.4367-1.0629-.0071-1.01.0052-2.0224-.0053-3.0327a1.7479,1.7479,0,0,0-1.53-1.9452,4.2425,4.2425,0,0,0-1.9066-.03A2.2553,2.2553,0,0,0,.7959,44.8818c-.1351.2789-.24.656.1438.8419.3421.1649.549-.09.6981-.3666a1.9374,1.9374,0,0,1,2.17-.877c.6613.0649,1.1349.3841,1.1349,1.1138,0,.763-.6367.7911-1.1542.8735a12.31,12.31,0,0,0-2.24.44A1.5842,1.5842,0,0,0,.2942,48.67a1.7414,1.7414,0,0,0,1.3875,1.6962,3.4318,3.4318,0,0,0,3.2958-.88c.114.77.5946.912,1.2.8664.1544-.0123.3-.0508.3385-.2262A.2677.2677,0,0,0,6.3947,49.8053Zm-3.622-.1263c-.83-.0123-1.3682-.3771-1.4383-.977-.0754-.6367.3929-1.1489,1.2243-1.305.6262-.1158,1.2594-.1894,1.8838-.31.435-.0842.5578.0771.556.4981A2.01,2.01,0,0,1,2.7727,49.679Z" style="fill:#fff"/><path d="M20.6807,44.5834a2.9882,2.9882,0,0,1,1.5809-.9086c1.6156-.1741,2.9405.2456,2.8746,2.4451-.0332,1.107-.0016,2.2158-.0072,3.3238-.0019.3745-.0064.8321-.4937.8471-.5651.0174-.5216-.47-.5217-.8676,0-1.108.008-2.2161-.0036-3.324-.0117-1.1257-.4576-1.6328-1.4311-1.6627a1.7714,1.7714,0,0,0-1.9684,1.586c-.0585,1.08-.0251,2.1657-.029,3.2489a1.5665,1.5665,0,0,1-.1261.7924.4258.4258,0,0,1-.4233.24.4361.4361,0,0,1-.4351-.3337,2.4436,2.4436,0,0,1-.0341-.514Q19.66,45.8,19.665,42.1437c.0009-.3545-.0921-.8141.4635-.8344.5964-.0218.5413.4594.5482.844C20.69,42.9138,20.6807,43.6747,20.6807,44.5834Z" style="fill:#fff"/><path d="M36.2778,47.2356c.6157.03,1.2331.0071,1.8488.0071s1.233-.0158,1.8487.0035c.5157.0175.6911-.2351.7051-.7174a2.8482,2.8482,0,0,0-2.168-2.8187,2.8892,2.8892,0,0,0-3.4641,1.5611,4.8441,4.8441,0,0,0-.2,2.9748,2.57,2.57,0,0,0,1.8908,2.0715A3.2227,3.2227,0,0,0,39.9718,49.6c.3455-.3157.7156-.8085.2543-1.2-.4473-.3789-.6349.2175-.8594.5a2.0377,2.0377,0,0,1-2.2662.6507,2.114,2.114,0,0,1-1.3138-1.7329C35.7446,47.4251,35.82,47.2146,36.2778,47.2356Zm-.4016-1.4435a1.937,1.937,0,0,1,1.9662-1.3629,1.8738,1.8738,0,0,1,1.754,1.5243c.1018.4174.0018.5946-.4508.5718-.4893-.0246-.9822-.0053-1.4733-.0053-.4175,0-.8384-.0281-1.2524.0071C35.8043,46.58,35.6937,46.3253,35.8762,45.7921Z" style="fill:#fff"/><path d="M30.2738,2.489A2.7375,2.7375,0,0,0,26.9781,3.62a4.404,4.404,0,0,0-.0369,4.3832,2.9542,2.9542,0,0,0,4.8288.1351c.1772-.2947.3719-.6736.03-.9349-.356-.2719-.5595.07-.7472.342a1.8728,1.8728,0,0,1-2.15.8911,2.1528,2.1528,0,0,1-1.4576-1.9435c-.0368-.342.0649-.435.3824-.43.6157.014,1.2331.0035,1.8487.0035.6157-.0018,1.2313-.0035,1.847,0a.6182.6182,0,0,0,.7016-.663A2.9022,2.9022,0,0,0,30.2738,2.489Zm.4894,2.8556c-.4894-.0334-.9805-.0088-1.47-.0088a11.8387,11.8387,0,0,0-1.2489.0088c-.6262.0684-.6244-.2579-.51-.7016a1.8537,1.8537,0,0,1,3.6571.1771C31.2526,5.1814,31.1929,5.3726,30.7632,5.3446Z" style="fill:#fff"/><path d="M45.2917,2.38a2.8132,2.8132,0,0,0-2.71,2.7818c-.2246,2.1206.5349,3.6168,2.0416,4.0237.0474.0123.0965.0158.1456.0263,2.3574.5105,3.915-.83,3.9167-3.3712C48.6875,3.48,47.4842,2.2522,45.2917,2.38Zm2.4188,3.5431c-.0456,1.7154-.8612,2.6327-2.268,2.545-.0245-.0017-.0491-.0017-.0736-.0034a1.7753,1.7753,0,0,1-1.61-1.3121,3.4248,3.4248,0,0,1,.4262-3.3589,1.8477,1.8477,0,0,1,2.0908-.5122C47.2211,3.5625,47.7473,4.5412,47.7105,5.9234Z" style="fill:#fff"/><path d="M34.0993,15.0021a3.0709,3.0709,0,0,0-4.0921,1.4c-.84,1.8539-.2455,4.2324,1.2542,4.9691a2.87,2.87,0,0,0,.8366.2631c2.3188.3385,3.7115-.9367,3.7168-3.9693A2.8741,2.8741,0,0,0,34.0993,15.0021ZM32.7312,20.88c-1.3208-.0157-2.1294-1.0962-2.0715-2.77.0579-1.6645.884-2.6064,2.2294-2.5363,1.21.0632,1.9118.9911,1.9487,2.58C34.8764,19.845,34.066,20.8939,32.7312,20.88Z" style="fill:#fff"/><path d="M59.7869,48.1064q.0055.3819.011.7639a1.582,1.582,0,0,1-.9713,1.2226,3.5283,3.5283,0,0,1-3.7049-.2854,1.3973,1.3973,0,0,1-.5573-.7559c-.095-.3129-.1079-.606.233-.7534.3388-.1465.53.0569.7052.3434a1.9961,1.9961,0,0,0,2.6038.8389.98.98,0,0,0,.7109-.8555.8085.8085,0,0,0-.6455-.8044c-.6264-.2131-1.2669-.3847-1.9035-.5668a2.8566,2.8566,0,0,1-1.2443-.6147,1.6849,1.6849,0,0,1,.24-2.4776,3.2341,3.2341,0,0,1,3.6628.0735,1.4372,1.4372,0,0,1,.49.6354c.0882.2786.1892.5919-.1779.7675-.34.1629-.4975-.084-.6349-.3246a1.7718,1.7718,0,0,0-1.955-.8662c-.5028.0691-.961.2789-1.0369.8806-.0789.6263.3189.8849.8369,1.0239.5926.1589,1.1982.2738,1.7828.457C58.9185,47.0238,59.603,47.2744,59.7869,48.1064Z" style="fill:#fff"/><path d="M20.47,28.1184a2.5848,2.5848,0,0,1,2.6648-.9005A1.7334,1.7334,0,0,1,24.6831,28.93c.0551,1.4515.0211,2.9063.0274,4.36.0016.3475-.1448.5988-.5055.5893-.3735-.01-.4728-.3136-.475-.631-.008-1.1332.0024-2.2666-.0076-3.4-.0128-1.436-.3647-1.8666-1.4928-1.8588A1.7511,1.7511,0,0,0,20.4142,29.95c-.013,1.0592-.0063,2.1187-.0011,3.1781.0019.3758-.0612.748-.51.7463-.46-.0018-.4923-.3939-.492-.7582.0012-1.626-.0048-3.252.0044-4.878.0022-.3742-.124-.8751.4241-.96C20.4233,27.1878,20.3009,27.7715,20.47,28.1184Z" style="fill:#fff"/><path d="M25.7771,21.6745a2.9573,2.9573,0,0,1-2.055-.6735,1.3628,1.3628,0,0,1-.5309-.8569c-.0409-.2858-.0306-.5647.2783-.6849.3264-.1269.4848.11.6359.3531a1.909,1.909,0,0,0,2.4222.9326,1.0413,1.0413,0,0,0,.8148-.8576c.06-.5032-.2886-.7735-.7-.9177-.6238-.2185-1.27-.3723-1.8993-.5768-1.13-.3674-1.5977-.9676-1.4965-1.8838A1.985,1.985,0,0,1,25.1738,14.8a3.0254,3.0254,0,0,1,2.0541.4082,1.6213,1.6213,0,0,1,.6493.6893c.1306.312.2951.6871-.121.9045-.3785.1977-.4977-.1627-.6568-.4017a1.7874,1.7874,0,0,0-2.187-.7131.9356.9356,0,0,0-.6933.9321.8447.8447,0,0,0,.6745.8576c.6107.182,1.2372.3113,1.8478.4937,1.1734.3507,1.6739.9619,1.591,1.8993a2.0374,2.0374,0,0,1-1.9663,1.7673C26.1709,21.66,25.9735,21.6625,25.7771,21.6745Z" style="fill:#fff"/><path d="M14.9539,43.6548a2.7628,2.7628,0,0,1,2.5835,1.25c.2086.3045.3195.6633-.068.9052-.3848.24-.6444.012-.8228-.3389a1.7934,1.7934,0,0,0-1.9618-1.0092,1.9238,1.9238,0,0,0-1.7238,1.5957,3.72,3.72,0,0,0,.0982,2.2541,1.8558,1.8558,0,0,0,1.6372,1.3008A1.8066,1.8066,0,0,0,16.65,48.5959c.1788-.3486.37-.8221.8622-.5064.5053.3241.2474.7979,0,1.1647a3.2753,3.2753,0,0,1-5.3312-.3157,4.0149,4.0149,0,0,1,.05-3.8345A2.7024,2.7024,0,0,1,14.9539,43.6548Z" style="fill:#fff"/><path d="M42.4488,46.4438a2.7884,2.7884,0,0,1,1.7012-2.5,3.3652,3.3652,0,0,1,3.5015.3289,2.0542,2.0542,0,0,1,.5793.662c.1878.3257.2835.68-.1074.9-.3495.1969-.6093-.0244-.7786-.3375a1.8719,1.8719,0,0,0-.9427-.8984,1.96,1.96,0,0,0-2.6032,1.0177,3.3759,3.3759,0,0,0,.0486,2.9322A1.7849,1.7849,0,0,0,45.56,49.623a1.7621,1.7621,0,0,0,1.7531-.989,2.0157,2.0157,0,0,1,.2632-.4413.4679.4679,0,0,1,.5955-.1462.4832.4832,0,0,1,.2707.4863,1.4446,1.4446,0,0,1-.468.9727,3.4985,3.4985,0,0,1-3.7737.6914C43.0685,49.7253,42.4446,48.6046,42.4488,46.4438Z" style="fill:#fff"/><path d="M27.4157,28.1839a2.6173,2.6173,0,0,1,2.7878-.95,1.664,1.664,0,0,1,1.4525,1.623c.0578,1.4746.0334,2.9525.0412,4.4291.0017.3317-.1085.6078-.4915.5912-.3766-.0164-.4607-.2982-.46-.6283.0038-1.1323.0088-2.2647-.0018-3.3969C30.7315,28.481,30.36,28.01,29.3072,27.99a1.7522,1.7522,0,0,0-1.904,1.8773c-.0361,1.0819-.01,2.1659-.0093,3.2489,0,.36-.0109.7486-.4848.7573-.4925.0091-.4823-.3971-.4829-.7467-.003-1.6492-.0083-3.2985.0042-4.9476.0028-.3659-.1323-.8844.4646-.9032C27.4362,27.2588,27.3234,27.7636,27.4157,28.1839Z" style="fill:#fff"/><path d="M38.3518,15.8526a2.5836,2.5836,0,0,1,2.69-1.0343,1.659,1.659,0,0,1,1.5634,1.5983c.0684,1.5.0438,3.0046.05,4.5073.0012.2931-.0963.55-.4508.5563-.3872.0072-.5006-.2456-.5008-.5831-.0008-1.1828.0066-2.3658-.0039-3.5485-.0108-1.2128-.3754-1.6868-1.3235-1.7607A1.6763,1.6763,0,0,0,38.42,17.1525c-.1065,1.1486-.0515,2.3121-.0721,3.469a2.0272,2.0272,0,0,1-.0584.5833.4207.4207,0,0,1-.5391.2659c-.3049-.0647-.3525-.3077-.353-.5675q-.003-1.5894-.0017-3.1789c0-.6654-.007-1.3309.0028-1.9961.0053-.3542-.098-.8334.4418-.8511C38.376,14.86,38.3029,15.3412,38.3518,15.8526Z" style="fill:#fff"/><path d="M15.3753,2.3991c.3-.3032.1411-.683.1489-1.0245.0147-.6394.2419-.788.7746-.4156a3.4732,3.4732,0,0,1,.0462.6565c-.0625.549.0318.908.7128.8158a.3772.3772,0,0,1,.4557.3738c0,.2811-.2257.3853-.4646.3482-.7052-.11-.7194.2952-.7065.8256.03,1.2312.0153,2.4637.0077,3.6956-.0032.5074.093.8891.7355.8022a.3789.3789,0,0,1,.48.34c.0208.2614-.1865.3662-.4139.4425a1.2251,1.2251,0,0,1-1.7534-1.2255c-.0256-1.4533-.0059-2.9073-.0126-4.3609-.0011-.2248.0939-.52-.3215-.5125-.2735.0049-.6007-.0195-.5535-.41.0437-.3621.3788-.3164.6429-.3386C15.2277,2.4059,15.3015,2.4033,15.3753,2.3991Z" style="fill:#fff"/><path d="M50.73,47.0742c0-.6158-.0024-1.2317.0007-1.8475.0024-.4617.1111-.98-.6352-.956-.1588.0051-.2483-.1426-.248-.3124s.0951-.313.2508-.314c.7879-.005.6232-.5705.6314-1.0375.0052-.2954-.0035-.5916.0154-.8861a.4172.4172,0,0,1,.4945-.4225.3993.3993,0,0,1,.4023.4364c.0113.2458.0166.4927.0074.7386-.0223.5892-.1221,1.2125.81,1.1406a.3325.3325,0,0,1,.361.38c-.0189.2636-.2247.3226-.4216.314-.6765-.03-.7819.3285-.76.9187.0438,1.2055.0166,2.4137.0118,3.6208-.002.48.1082.83.702.781.2638-.0218.5167.068.5137.3883-.0029.3065-.2687.3876-.5127.4427a1.1819,1.1819,0,0,1-1.6151-1.2415c-.0168-.714-.0033-1.4287-.0033-2.1431Z" style="fill:#fff"/><path d="M19.6648,18.2307c0-.5666.0053-1.1333-.0017-1.7-.0058-.4739.2-1.0722-.6411-1.0653-.19.0016-.2763-.1888-.2472-.3866a.3256.3256,0,0,1,.3776-.278c.505.0277.5429-.2682.5179-.6588-.0235-.368-.0066-.7387-.0036-1.1082.0027-.332.1024-.587.4977-.5866.3737,0,.4385.2733.4517.5533a9.3524,9.3524,0,0,1-.0027,1.1815c-.0352.4407.105.6368.5733.6014.2588-.02.6051-.0143.5973.3723-.0073.3661-.34.4048-.6043.3787-.4766-.047-.5776.1534-.5689.5924.026,1.3051.0141,2.6112.0066,3.9168-.0028.5.0757.8989.721.8343.2332-.0234.4765.0221.5032.3034.0285.3-.196.4119-.4589.4757-1.0765.2612-1.6809-.1816-1.7082-1.2834-.0177-.7139-.0034-1.4287-.0034-2.1431Z" style="fill:#fff"/><path d="M32.2342,50.4782c-.9853.0032-1.3207-.2972-1.3351-1.2265-.0216-1.4043-.016-2.8091-.0071-4.2136.0024-.3715,0-.6947-.4917-.7219-.2048-.0114-.3992-.089-.4185-.3351-.0241-.3095.2326-.38.4407-.3849.48-.01.4777-.3076.4681-.6517-.0109-.3939-.0067-.7886.006-1.1825a.4189.4189,0,0,1,.4563-.4641c.3082.002.44.1853.4506.47.01.2707.0168.5424.0055.8129-.0229.5514-.09,1.1111.7608,1.0369a.3386.3386,0,0,1,.4052.336c-.0079.3-.25.3694-.4709.3459-.6362-.0677-.7139.271-.7019.7974.0291,1.2808.0095,2.5626.0109,3.844,0,.3377.0258.6554.4807.6793.3053.0161.7364-.0674.6922.4209C32.9443,50.5022,32.51,50.4476,32.2342,50.4782Z" style="fill:#fff"/><path d="M39.9314.1729l1.077-.0147c.4573.47.11.606-.2978.716a.97.97,0,0,0-.7252,1.2588c.0805.3373.3208.2357.5215.2491.2884.0192.6636-.0592.677.3664s-.354.4236-.6472.3861c-.4883-.0624-.5647.1656-.5578.5924.0232,1.4286.0271,2.8582-.0034,4.2865-.0083.3859.2576,1.0321-.4382,1.0508-.7007.0189-.47-.6245-.4763-1.0151-.0242-1.4533-.02-2.9072-.0023-4.3606.0047-.3794-.042-.6119-.502-.5549a.3848.3848,0,0,1-.4813-.4184c.0132-.2845.25-.3566.4841-.3237.5653.0794.496-.2969.4928-.6423C39.0459,1.0584,39.0962.3959,39.9314.1729Z" style="fill:#fff"/><path d="M50.4379,2.5325c.5518-.4339.7459-.0482.87.4429a2.525,2.525,0,0,1,1.38-.589c.2039.0056.4063.0074.4486.27.04.2473-.1115.3679-.32.4153-1.2235.2779-1.5447,1.1556-1.535,2.27.0086.9845.0091,1.9693-.0047,2.9537-.0051.3646.0126.8063-.5323.7891-.5118-.0162-.4439-.4349-.4429-.7722q.0081-2.7312.0267-5.4623c.14-.1317.3085-.0621.4457-.0662.1192.0109.0348-.1574.0332-.0587a.0494.0494,0,0,0-.0222,0C50.6151,2.7577,50.4108,2.8543,50.4379,2.5325Z" style="fill:#fff"/><path d="M34.412,2.3766c.05.0167.2513.0356.2643.0955.176.809.5237.2363.8154.1126a1.4973,1.4973,0,0,1,.4119-.1546c.2748-.026.6439-.2027.7762.1744.1484.4233-.251.4467-.5206.5325a1.6773,1.6773,0,0,0-1.2667,1.6279c-.0466,1.0562-.0342,2.1151-.0493,3.1727-.0031.2213-.0051.4433-.0256.6633-.0287.3086-.1754.512-.5194.4889-.3065-.0206-.4229-.2136-.4228-.4973q.0006-2.8432.0024-5.6865C33.8778,2.5917,33.9882,2.3791,34.412,2.3766Z" style="fill:#fff"/><path d="M9.3787,44.2341a2.3659,2.3659,0,0,1,1.3238-.6418c.2353-.0293.4637.0267.5117.2975.0426.24-.1353.3407-.3457.3938a2.009,2.009,0,0,0-1.5393,2.2812c.0086,1.0078.003,2.0158-.0005,3.0237-.0012.3625-.0421.7448-.5184.7254-.4521-.0184-.4147-.4086-.4154-.726-.0035-1.77,0-3.54-.0035-5.31-.0006-.3071-.0022-.62.3834-.6894C9.216,43.5087,9.2952,43.8459,9.3787,44.2341Z" style="fill:#fff"/><path d="M11.6953,5.8727c0-.8867.004-1.7735-.0019-2.66-.0025-.3738.044-.7344.51-.7365.4212-.0019.4951.3362.4955.6808q.0024,2.66-.0019,5.32c-.0011.37-.0857.7344-.5535.7019-.4194-.0291-.45-.3822-.4492-.72C11.6966,7.5968,11.6953,6.7347,11.6953,5.8727Z" style="fill:#fff"/><path d="M28.1322,47.0065c0,.8842.0009,1.7684-.0011,2.6526-.0008.336-.0283.6764-.4808.67-.4631-.0062-.4524-.3654-.4529-.69q-.0034-2.6526,0-5.3053c0-.3346.0171-.6742.4777-.6666.4647.0076.4554.361.4566.6867C28.1348,45.238,28.1326,46.1223,28.1322,47.0065Z" style="fill:#fff"/><path d="M50.4379,2.5325c.0789.2153.3525.0912.5024.317h-.6122C50.3078,2.7242,50.2836,2.5974,50.4379,2.5325Z" style="fill:#fff"/></svg>